# xmcd
#
# Track frame offsets: 
#        150
#        18329
#        37563
#        53153
#
# Disc length: 929 seconds
#
# Revision: 0
# Processed by: cddbd v1.5.2PL0 Copyright (c) Steve Scherf et al.
# Submitted via: ExactAudioCopyFreeDBPlugin 1.0
#
DISCID=20039f04
DTITLE=A Pocketful Of Blues - A Pocketful Of Blues
DYEAR=1997
DGENRE=Blues
TTITLE0=Hound Dog
TTITLE1=New Haircut
TTITLE2=Let Me Play With Your Poodle
TTITLE3=Knock Me a Kiss
EXTD=
EXTT0=
EXTT1=
EXTT2=
EXTT3=
PLAYORDER=
